<svg width="353.6" height="77.3" viewBox="0 0 353.6 77.3" xmlns="http://www.w3.org/2000/svg">
    <g id="svgGroup" stroke-linecap="round" fill-rule="evenodd" font-size="9pt" fill="#000" stroke-width="0.25mm"  style="stroke-width:0.25mm;"><path d="M 298.3 73.8 L 281.8 74.9 Q 286.2 61.6 290.2 48.8 Q 291.9 43.4 293.7 37.5 Q 295.5 31.6 297.3 25.8 Q 299.1 20 300.65 14.6 Q 302.2 9.2 303.4 4.6 Q 308.9 4.6 313.8 4 Q 318.7 3.4 324.4 2.9 Q 324.1 5.1 323.75 7.85 Q 323.4 10.6 322.95 13.6 Q 322.5 16.6 322 19.8 Q 321.5 23 320.8 28 Q 320.1 33 318.9 40.5 L 320.2 40.5 A 3019.185 3019.185 0 0 0 324.94 28.008 A 1588.068 1588.068 0 0 0 325 27.85 Q 326.9 22.8 328.1 19.6 Q 329.3 16.4 330.55 13.35 Q 331.8 10.3 332.95 7.55 Q 334.1 4.8 335.1 2.7 Q 337.6 2.5 339.8 2.2 Q 342 1.9 344.2 1.55 Q 346.4 1.2 348.65 0.85 Q 350.9 0.5 353.6 0 Q 352.6 5.8 351.7 11.9 Q 350.8 18 350.1 24.05 Q 349.4 30.1 348.75 36 Q 348.1 41.9 347.6 47.2 Q 346.4 59.6 345.5 71.4 L 328.1 74.5 Q 328.1 74 328.25 71.8 Q 328.4 69.6 328.65 66.4 Q 328.9 63.2 329.35 59.3 L 330.25 51.5 Q 330.7 47.6 331.2 43.95 Q 331.7 40.3 332.2 37.7 L 331.3 37.7 Q 329.9 41.9 328.2 46.55 Q 326.5 51.2 324.75 56 Q 323 60.8 321.3 65.4 Q 319.6 70 318.3 74.2 Q 314.8 74.3 312.3 74.45 Q 309.8 74.6 306.5 74.8 L 309.7 37.7 L 308.2 37.7 Q 308 39 307.2 42.05 Q 306.4 45.1 305.35 49.05 Q 304.3 53 303.1 57.25 Q 301.9 61.5 300.85 65.15 Q 299.8 68.8 299.1 71.15 Q 298.4 73.5 298.3 73.8 Z M 279.6 4 L 294.8 3 L 294.3 5.6 Q 293.8 8.2 293 12.5 Q 292.2 16.8 291.25 22.3 Q 290.3 27.8 289.1 33.75 Q 287.9 39.7 286.75 45.45 Q 285.6 51.2 284.5 56 Q 283.1 61.7 280.55 65.7 Q 278 69.7 274.55 72.3 Q 271.1 74.9 267.2 76.1 Q 263.3 77.3 259.4 77.3 Q 257.1 77.3 254.7 76.55 Q 252.3 75.8 250.4 74.3 Q 248.5 72.8 247.25 70.5 Q 246 68.2 246 65.1 L 246 64.3 Q 246 63.9 246.1 63.5 Q 246.5 59.4 247.4 53.6 Q 248.3 47.8 249.3 41.5 Q 250.3 35.2 251.5 28.85 Q 252.7 22.5 253.65 17.3 Q 254.6 12.1 255.3 8.65 A 144.962 144.962 0 0 1 256.197 4.413 A 8.797 8.797 0 0 1 256.2 4.4 Q 258.3 4.2 261.2 3.9 Q 264.1 3.6 266.6 3.4 Q 269.7 3.1 272.7 2.8 Q 270.1 14.9 268.1 24.7 Q 267.2 28.9 266.35 33.1 Q 265.5 37.3 264.75 40.8 Q 264 44.3 263.45 46.85 Q 262.9 49.4 262.55 51 Q 262.2 52.6 261.75 55.05 Q 261.3 57.5 261.3 59.5 Q 261.3 61.1 262.1 62.15 Q 262.9 63.2 264.1 63.2 Q 265.8 63.2 266.9 61.85 Q 268 60.5 268.75 58.6 Q 269.5 56.7 269.85 54.75 Q 270.2 52.8 270.5 51.7 Q 271.1 48.8 271.85 45.25 Q 272.6 41.7 273.35 37.85 Q 274.1 34 274.85 30 Q 275.6 26 276.3 22.2 Q 278 13.4 279.6 4 Z M 215.1 71.4 L 198.9 75.6 Q 201.6 62.3 204.1 49.6 Q 205 44.2 206.1 38.35 Q 207.2 32.5 208.15 26.75 Q 209.1 21 209.95 15.65 Q 210.8 10.3 211.3 5.9 Q 217 4.1 223.6 3.25 Q 230.2 2.4 236.7 2.4 Q 240.6 2.4 243.15 3.3 Q 245.7 4.2 247.15 5.85 Q 248.6 7.5 249.2 9.7 Q 249.8 11.9 249.8 14.6 Q 249.8 18.6 248.4 22.45 Q 247 26.3 244.65 29.75 Q 242.3 33.2 239.25 36.05 Q 236.2 38.9 232.7 40.7 Q 234.5 44.7 236.55 49.45 Q 238.6 54.2 240.4 58.5 Q 242.4 63.5 244.5 68.5 L 229 73.9 Q 227 67.5 225.4 61.9 Q 224.7 59.6 224 57.15 Q 223.3 54.7 222.7 52.5 Q 222.1 50.3 221.7 48.55 Q 221.3 46.8 221.2 45.7 L 219.9 46.1 Q 219.3 49.3 218.45 53.6 Q 217.6 57.9 216.9 61.9 Q 216 66.6 215.1 71.4 Z M 56.7 58.4 L 48 58.4 L 44 72.8 Q 41.8 73.1 38.8 73.45 Q 35.8 73.8 33.2 74.1 Q 30 74.5 26.9 74.9 Q 30.9 61.6 34.8 48.7 Q 36.4 43.3 38.15 37.4 Q 39.9 31.5 41.65 25.65 Q 43.4 19.8 45 14.4 Q 46.6 9 47.8 4.5 Q 54.6 4 61.65 3.3 Q 68.7 2.6 75.4 1.4 Q 75.1 4.6 74.75 9.35 Q 74.4 14.1 74.1 19.7 Q 73.8 25.3 73.5 31.4 Q 73.2 37.5 72.9 43.4 Q 72.4 57.2 71.8 72.7 Q 68.8 73.2 65.8 73.5 Q 63.3 73.9 60.3 74.4 L 54.9 75.3 Q 55.3 72 55.7 68.8 Q 56 66 56.25 63.2 Q 56.5 60.4 56.7 58.4 Z M 128.6 3.6 L 162.1 1.9 L 159.2 14.2 L 143.5 14.2 L 140.4 32 Q 143.5 31.9 146.3 31.9 L 151 31.9 Q 153.4 31.9 154.7 31.8 Q 154.4 34.6 153.95 37.3 Q 153.5 40 153.1 42.7 Q 151.8 42.7 149.4 42.65 Q 147 42.6 144.45 42.5 Q 141.9 42.4 138.7 42.3 L 134.1 71.8 Q 130.7 72.4 127.4 73.1 Q 124.6 73.6 121.3 74.3 Q 118 75 115.5 75.6 Q 116.7 71.3 117.85 65.95 Q 119 60.6 120.15 54.7 Q 121.3 48.8 122.35 42.75 Q 123.4 36.7 124.4 31.1 Q 126.5 17.8 128.6 3.6 Z M 117.5 50.4 Q 117.5 54.5 115.8 58 Q 114.1 61.5 111.2 64.35 Q 108.3 67.2 104.45 69.35 Q 100.6 71.5 96.35 72.95 Q 92.1 74.4 87.65 75.15 Q 83.2 75.9 79.1 75.9 Q 75.4 75.9 72.2 75.3 Q 77 57.8 79.85 40.05 Q 82.7 22.3 85.3 4.3 Q 90.5 3.2 96.1 2.35 Q 101.7 1.5 107.7 1.5 Q 110.2 1.5 113 2.1 Q 115.8 2.7 118.1 4.3 Q 120.4 5.9 121.95 8.5 Q 123.5 11.1 123.5 15.1 Q 123.5 18.9 122.25 22.2 Q 121 25.5 119.05 28.2 Q 117.1 30.9 114.6 32.85 Q 112.1 34.8 109.5 35.8 Q 110.8 36.5 112.2 37.8 Q 113.6 39.1 114.8 40.85 Q 116 42.6 116.75 45 Q 117.5 47.4 117.5 50.4 Z M 12.8 4.2 L 30.3 1.9 Q 27.6 13.5 25.1 24.5 Q 24 29.2 22.9 34.25 Q 21.8 39.3 20.8 44.1 Q 19.8 48.9 19 53.4 Q 18.2 57.9 17.7 61.4 Q 20.2 61.2 23.05 61.15 Q 25.9 61.1 28.1 61.1 Q 28.2 63 28.4 64.85 Q 28.6 66.7 28.85 68.2 Q 29.1 69.7 29.25 70.85 Q 29.4 72 29.5 72.4 Q 28.7 72.4 27.95 72.35 Q 27.2 72.3 26.4 72.3 Q 23.3 72.3 19.85 72.5 Q 16.4 72.7 12.9 73.1 Q 9.4 73.5 6.05 74.15 Q 2.7 74.8 0 75.7 Q 0.6 71.2 1.4 65.7 Q 2.2 60.2 3.25 54.3 Q 4.3 48.4 5.35 42.4 Q 6.4 36.4 7.5 30.9 Q 10 17.8 12.8 4.2 Z M 205.2 21.4 Q 205.2 29.6 203.45 36.85 Q 201.7 44.1 198.8 50.15 Q 195.9 56.2 192.05 60.95 Q 188.2 65.7 184 69.05 Q 179.8 72.4 175.5 74.15 Q 171.2 75.9 167.3 75.9 Q 164 75.9 161.3 74.65 Q 158.6 73.4 156.6 70.95 Q 154.6 68.5 153.45 64.65 Q 152.3 60.8 152.3 55.4 Q 152.3 49.8 153.7 43.6 Q 155.1 37.4 157.5 31.3 Q 159.9 25.2 163.4 19.7 Q 166.9 14.2 171.1 9.95 Q 175.3 5.7 180.1 3.2 Q 184.9 0.7 190.1 0.7 Q 194.6 0.7 197.55 2.55 Q 200.5 4.4 202.15 7.35 Q 203.8 10.3 204.5 14 Q 205.2 17.7 205.2 21.4 Z M 167.2 52.8 Q 167.2 53.9 167.6 55.1 Q 168 56.3 168.7 57.2 Q 169.4 58.1 170.45 58.75 Q 171.5 59.4 172.7 59.4 Q 177.2 59.4 180.7 56.3 Q 184.2 53.2 186.5 48.7 Q 188.8 44.2 190.05 39.1 Q 191.3 34 191.3 29.8 Q 191.3 28.6 191.15 27.2 Q 191 25.8 190.55 24.6 Q 190.1 23.4 189.15 22.55 Q 188.2 21.7 186.6 21.7 Q 183.4 21.7 180.7 23.3 Q 178 24.9 175.85 27.55 Q 173.7 30.2 172.1 33.55 Q 170.5 36.9 169.35 40.35 Q 168.2 43.8 167.7 47.1 Q 167.2 50.4 167.2 52.8 Z M 56.6 23.3 L 50.4 48.4 Q 50.8 48.4 51.85 48.35 Q 52.9 48.3 54.05 48.25 Q 55.2 48.2 56.2 48.15 Q 57.2 48.1 57.6 48 Q 57.6 47.4 57.75 45.95 Q 57.9 44.5 58.05 42.65 Q 58.2 40.8 58.4 38.6 Q 58.6 36.4 58.8 34.3 Q 59.2 29.2 59.8 23.3 L 60.4 14.6 L 58.9 14.7 L 56.6 23.3 Z M 225.6 16.3 L 222.4 32.2 Q 224.3 32 227.05 30.6 Q 229.8 29.2 232.3 27.25 Q 234.8 25.3 236.6 23.2 Q 238.4 21.1 238.4 19.5 Q 238.4 18.4 237.7 17.75 Q 237 17.1 235.75 16.75 Q 234.5 16.4 233 16.3 Q 231.5 16.2 229.9 16.2 Q 228.8 16.2 227.65 16.25 Q 226.5 16.3 225.6 16.3 Z M 94.6 40 Q 94.2 42.4 93.85 44.25 Q 93.5 46.1 93.2 47.8 Q 92.9 49.5 92.55 51.35 Q 92.2 53.2 91.8 55.7 Q 93.7 55.5 96.1 55 Q 98.5 54.5 100.7 53.45 Q 102.9 52.4 104.4 50.65 Q 105.9 48.9 105.9 46.4 Q 105.9 44.6 104.95 43.4 Q 104 42.2 102.55 41.4 Q 101.1 40.6 99.4 40.25 Q 97.7 39.9 96.2 39.9 L 95.35 39.9 Q 95 39.9 94.6 40 Z M 100.1 15.8 L 99.1 15.8 Q 98.9 16.9 98.65 18.4 Q 98.4 19.9 98.1 21.55 Q 97.8 23.2 97.45 24.8 Q 97.1 26.4 96.9 27.6 Q 99.1 27.2 101.3 26.5 Q 103.5 25.8 105.25 24.95 Q 107 24.1 108.05 23.1 Q 109.1 22.1 109.1 20.9 Q 109.1 19.4 108.2 18.45 Q 107.3 17.5 105.85 16.9 Q 104.4 16.3 102.85 16.05 Q 101.3 15.8 100.1 15.8 Z"/></g></svg>