<?xml version="1.0" standalone="no"?>
<!DOCTYPE svg PUBLIC "-//W3C//DTD SVG 20010904//EN"
 "http://www.w3.org/TR/2001/REC-SVG-20010904/DTD/svg10.dtd">
<svg version="1.0" xmlns="http://www.w3.org/2000/svg"
 width="945.000000pt" height="479.000000pt" viewBox="0 0 945.000000 479.000000"
 preserveAspectRatio="xMidYMid meet">
<metadata>
Created by potrace 1.15, written by Peter Selinger 2001-2017
</metadata>
<g transform="translate(0.000000,479.000000) scale(0.100000,-0.100000)"
fill="#000000" stroke="none">
<path d="M6399 4300 c-4 -3 -29 -47 -53 -98 -25 -50 -56 -108 -69 -129 -36
-57 -134 -232 -167 -298 -48 -93 -59 -94 -119 -8 -22 32 -56 76 -75 98 l-35
40 0 -85 c1 -97 -22 -218 -57 -304 -13 -33 -24 -66 -24 -74 0 -9 32 -48 70
-88 39 -39 70 -78 70 -85 2 -50 9 -297 15 -541 l8 -288 151 1 c84 0 158 4 165
8 10 7 12 83 10 372 -4 512 -12 448 80 631 44 86 89 174 100 195 12 21 62 124
112 228 50 105 115 240 145 300 30 61 54 116 54 123 0 10 -41 12 -186 10 -102
-2 -190 -5 -195 -8z"/>
<path d="M4296 4273 c-1 -1 -113 -3 -249 -4 -136 -1 -247 -4 -247 -6 0 -2 22
-27 49 -54 58 -59 108 -154 116 -222 5 -38 11 -50 29 -57 22 -8 23 -11 24
-192 0 -100 3 -284 7 -408 3 -124 8 -380 10 -569 3 -190 7 -347 10 -349 7 -7
353 -5 364 3 11 6 9 389 -4 960 -7 337 -7 536 0 543 4 4 21 7 38 8 18 0 114 4
215 9 l182 8 -1 159 c-1 108 -5 161 -13 164 -11 4 -526 11 -530 7z"/>
<path d="M4974 4257 c-2 -7 -3 -80 -2 -162 l3 -150 130 -2 c72 -1 145 -4 163
-7 88 -14 137 -103 112 -205 -22 -95 -72 -116 -270 -116 l-145 0 -5 85 c-6
103 6 98 -216 99 -134 1 -164 -2 -174 -14 -10 -12 -11 -44 -7 -128 4 -61 9
-260 12 -442 10 -618 15 -766 26 -787 10 -19 18 -20 180 -15 94 3 173 8 177
12 4 3 7 163 7 353 l0 347 84 3 c99 3 193 -23 233 -66 29 -30 62 -104 78 -172
5 -25 13 -135 16 -245 4 -119 11 -203 17 -207 11 -7 372 0 396 8 12 4 13 40 8
227 -8 246 -22 348 -60 423 -35 69 -104 143 -182 195 -36 23 -65 46 -65 50 0
4 18 10 39 14 82 14 174 116 213 237 19 62 23 94 23 208 0 117 -3 143 -23 193
-54 141 -163 222 -352 263 -88 19 -408 20 -416 1z"/>
<path d="M3310 4253 c-80 -12 -270 -91 -270 -113 0 -5 9 -24 19 -42 72 -123
81 -323 22 -475 -18 -44 -38 -87 -46 -93 -24 -20 -17 -46 19 -73 36 -28 111
-127 144 -192 12 -24 46 -61 84 -90 136 -106 227 -196 240 -236 16 -54 -2
-111 -46 -144 -43 -32 -123 -35 -171 -5 l-33 20 -6 -22 c-3 -13 -6 -34 -6 -48
-1 -33 -50 -147 -89 -205 -17 -25 -31 -51 -31 -58 0 -16 103 -55 181 -68 143
-24 288 12 416 104 92 66 143 150 169 276 23 116 15 183 -38 333 -13 37 -98
127 -180 191 -74 58 -338 280 -381 320 -15 15 -35 48 -43 75 -21 66 -6 122 47
175 39 39 40 40 95 33 95 -11 137 -43 149 -113 5 -35 11 -43 28 -43 12 -1 67
-3 121 -6 54 -3 119 -3 144 1 l45 7 -5 94 c-5 81 -10 103 -39 161 -60 118
-154 188 -304 226 -55 14 -175 19 -235 10z"/>
<path d="M566 4239 c-33 -5 -65 -14 -70 -19 -11 -11 -12 -125 -8 -945 0 -165
1 -356 1 -425 0 -165 20 -493 31 -504 14 -14 1155 -4 1223 10 l29 6 -6 87 c-4
47 -9 122 -12 166 -8 130 22 117 -267 111 -139 -4 -324 -9 -412 -12 -102 -3
-165 -2 -175 5 -13 9 -15 87 -16 593 -1 697 -7 896 -29 918 -19 18 -194 24
-289 9z"/>
<path d="M2142 4241 c-58 -4 -86 -11 -92 -21 -6 -9 -8 -102 -5 -240 10 -432
12 -454 44 -535 16 -40 34 -88 40 -106 17 -56 46 -137 95 -264 26 -66 53 -136
60 -155 8 -19 32 -82 54 -140 22 -58 56 -143 76 -188 19 -46 42 -106 51 -133
9 -27 26 -54 36 -60 22 -11 278 -4 340 10 70 16 225 147 267 228 21 40 52 229
52 321 0 96 -26 218 -54 252 -7 8 -24 35 -39 60 -48 85 -118 141 -210 170
l-38 12 45 43 c81 78 148 240 147 357 -1 165 -111 328 -255 378 -50 17 -83 19
-294 18 -130 -1 -274 -4 -320 -7z m425 -321 c46 -28 66 -71 57 -126 -10 -72
-30 -88 -113 -92 l-71 -4 0 64 c0 36 -3 86 -6 111 -6 43 -5 47 17 56 39 16 82
12 116 -9z m94 -765 c40 -14 51 -23 72 -64 34 -64 42 -129 27 -201 -15 -72
-49 -102 -143 -131 -57 -17 -131 -17 -141 0 -8 13 -28 391 -22 406 5 15 17 16
83 11 42 -3 97 -13 124 -21z"/>
<path d="M1610 4226 c-3 -3 -67 -6 -143 -7 l-137 -2 -17 -56 c-8 -31 -19 -63
-24 -71 -4 -8 -22 -60 -39 -115 -36 -112 -82 -243 -138 -385 -20 -52 -44 -122
-53 -155 -10 -33 -30 -103 -45 -155 -22 -75 -27 -113 -26 -185 1 -49 2 -117 2
-150 0 -33 4 -66 9 -74 10 -16 103 -21 205 -12 70 6 70 6 78 41 18 74 41 121
62 130 27 10 357 12 372 2 7 -4 31 -61 54 -127 77 -218 109 -308 116 -324 4
-9 22 -54 38 -101 20 -55 38 -88 52 -95 23 -11 368 -5 380 7 6 7 -82 246 -107
292 -6 10 -26 62 -45 115 -19 53 -43 114 -54 136 -10 22 -44 119 -75 215 -32
96 -68 204 -81 240 -13 36 -40 120 -59 188 -20 68 -50 155 -66 195 -17 40 -41
108 -54 152 -33 109 -93 277 -103 287 -10 10 -95 22 -102 14z m-20 -691 c62
-183 68 -162 -43 -170 -52 -4 -100 -4 -105 -1 -7 4 -4 27 8 64 10 31 28 86 39
122 32 103 41 124 51 114 5 -5 27 -63 50 -129z"/>
<path d="M5965 2181 c-76 -28 -161 -79 -270 -162 -33 -25 -88 -67 -123 -93
-34 -26 -67 -56 -72 -66 -12 -22 -13 -90 -2 -107 4 -7 5 -48 0 -92 -4 -43 -4
-333 0 -644 7 -553 7 -566 28 -594 16 -21 31 -29 61 -31 34 -3 44 1 65 27 36
42 40 102 37 480 l-3 324 72 17 c40 10 87 24 105 33 73 36 145 66 196 81 75
22 101 48 101 101 0 61 -23 79 -97 73 -60 -5 -159 -47 -253 -108 -61 -40 -121
-72 -125 -68 -5 5 -37 380 -33 383 20 18 146 116 173 135 20 14 48 35 63 46
28 22 133 79 191 103 55 23 71 45 71 99 0 64 -20 82 -86 81 -27 0 -71 -9 -99
-18z"/>
<path d="M7116 1398 c-54 -52 -141 -198 -161 -273 -7 -25 -10 -15 -21 64 -15
103 -31 131 -74 131 -51 0 -53 -14 -40 -187 9 -105 11 -235 6 -387 -8 -263 -7
-266 69 -266 51 0 75 23 75 70 0 45 30 233 40 245 4 6 13 32 19 59 7 28 21 69
32 92 10 24 19 49 19 57 0 23 109 230 136 257 19 19 35 25 72 25 l47 0 3 53
c3 48 0 56 -29 82 -26 26 -39 30 -85 30 -50 0 -56 -3 -108 -52z"/>
<path d="M7848 1423 c-9 -11 -22 -69 -32 -148 -10 -71 -26 -166 -36 -210 -10
-44 -21 -97 -24 -117 -9 -50 -62 -213 -86 -265 -11 -24 -20 -45 -20 -48 0 -11
-44 -65 -52 -65 -12 0 -9 190 7 435 8 121 15 256 15 301 0 71 -3 83 -23 102
-13 12 -35 22 -49 22 -44 0 -55 -26 -61 -140 -4 -58 -13 -186 -22 -284 -10
-108 -15 -248 -13 -352 l3 -173 34 -35 c33 -34 39 -36 96 -36 52 0 67 4 102
30 41 30 103 112 103 135 0 7 6 18 14 24 7 6 21 38 30 71 l17 61 26 -21 c61
-48 163 -12 166 60 2 31 -1 35 -28 40 -62 11 -71 84 -51 437 7 127 6 166 -4
178 -18 21 -93 20 -112 -2z"/>
<path d="M8135 1428 c-2 -7 -6 -139 -9 -293 -4 -238 -7 -293 -25 -365 -27
-111 -28 -211 -3 -233 25 -22 85 -22 105 1 8 9 23 57 32 105 9 49 20 96 24
105 5 10 23 62 41 117 17 55 59 156 93 225 l62 125 3 -55 c4 -63 -15 -215 -29
-242 -5 -10 -13 -48 -16 -83 -6 -62 -5 -67 22 -95 37 -39 100 -42 133 -7 12
13 22 27 22 30 0 7 34 78 99 206 l27 55 13 -87 c6 -47 18 -106 27 -129 52
-149 246 -185 351 -65 35 40 53 106 53 193 0 71 -18 80 -68 31 -20 -19 -48
-38 -62 -42 -14 -4 -35 -13 -47 -21 -20 -12 -23 -12 -33 5 -5 11 -15 66 -21
123 -13 128 -33 199 -66 238 -23 28 -30 30 -88 30 -59 0 -66 -3 -101 -35 -20
-19 -38 -35 -39 -35 -1 0 -6 32 -9 70 -6 59 -12 77 -38 105 -27 31 -36 35 -80
35 -64 0 -96 -18 -151 -82 -46 -55 -106 -158 -108 -187 -1 -9 -7 40 -15 108
-14 132 -27 161 -71 161 -13 0 -26 -6 -28 -12z"/>
<path d="M6420 1285 c-99 -65 -186 -213 -226 -382 -30 -127 -34 -321 -8 -396
20 -59 45 -77 108 -77 37 0 56 -5 73 -21 28 -27 101 -36 162 -19 182 49 292
406 217 704 -27 105 -57 153 -118 192 -53 34 -157 33 -208 -1z m144 -236 c46
-135 21 -332 -55 -428 -47 -60 -85 -73 -113 -39 -16 20 -18 35 -13 128 8 143
62 308 125 383 23 26 35 17 56 -44z"/>
</g>
</svg>
