<?xml version="1.0" encoding="UTF-8" standalone="no"?>
<svg
   xmlns:dc="http://purl.org/dc/elements/1.1/"
   xmlns:cc="http://creativecommons.org/ns#"
   xmlns:rdf="http://www.w3.org/1999/02/22-rdf-syntax-ns#"
   xmlns:svg="http://www.w3.org/2000/svg"
   xmlns="http://www.w3.org/2000/svg"
   id="svg16"
   version="1.1"
   viewBox="0 0 370.41666 79.375002"
   height="300"
   width="1400">
  <g
     id="layer1">
    <path
       style="fill:none;stroke:#000000;stroke-width:0.264583px;stroke-linecap:butt;stroke-linejoin:miter;stroke-opacity:0"
       id="path18"
       d="M -1.5119047,79.374999 C 56.208973,-13.022163 123.75937,-22.89084 189.23747,43.446167 c 34.21157,34.660338 72.00916,37.826581 101.04824,20.809785 61.37732,-46.609992 80.8869,-46.869048 80.8869,-46.869048 l 0.75595,63.500002 -307.672608,-2.267857 z" />
    <path
       transform="scale(0.26458333)"
       id="path110"
       d="M 987.40877,304.66796 -5.7142856,304 9.0051771,281.14286 C 127.44023,84.55129 374.96176,36.436784 559.5752,123.52876 c 111.33836,54.06736 158.48985,68.70749 261.14823,122.67529 49.79206,25.76246 88.02528,35.1915 142.51986,35.1481 39.34541,-0.0313 75.45821,-7.86678 109.66781,-23.79479 11.5989,-5.40045 45.9028,-27.78869 76.231,-49.75165 93.603,-67.78515 179.5535,-117.976061 228.535,-133.453233 12.1204,-3.829828 26.1945,-6.7616 26.3867,-6.515046 0.1923,0.246543 0.3851,118.305429 0.3851,118.305429 L 1406.4845,304 l -79.9862,1.50697 z"
       style="fill:#ffffff" />
  </g>
</svg>
